<svg width="24" height="24" viewBox="0 0 24 24" fill="none" xmlns="http://www.w3.org/2000/svg">
<path fill-rule="evenodd" clip-rule="evenodd" d="M21.75 17C21.75 18.2598 21.2496 19.468 20.3588 20.3588C19.468 21.2496 18.2598 21.75 17 21.75H7C5.74022 21.75 4.53204 21.2496 3.64124 20.3588C2.75044 19.468 2.25 18.2598 2.25 17V7C2.25 5.74022 2.75044 4.53204 3.64124 3.64124C4.53204 2.75044 5.74022 2.25 7 2.25H17C18.2598 2.25 19.468 2.75044 20.3588 3.64124C21.2496 4.53204 21.75 5.74022 21.75 7V17ZM8.5 16.75C8.30109 16.75 8.11032 16.671 7.96967 16.5303C7.82902 16.3897 7.75 16.1989 7.75 16V8C7.75 7.80109 7.82902 7.61032 7.96967 7.46967C8.11032 7.32902 8.30109 7.25 8.5 7.25C8.69891 7.25 8.88968 7.32902 9.03033 7.46967C9.17098 7.61032 9.25 7.80109 9.25 8V16C9.25 16.1989 9.17098 16.3897 9.03033 16.5303C8.88968 16.671 8.69891 16.75 8.5 16.75ZM13.5 12.75H14.75V15.25H13.5C13.1685 15.25 12.8505 15.1183 12.6161 14.8839C12.3817 14.6495 12.25 14.3315 12.25 14C12.25 13.6685 12.3817 13.3505 12.6161 13.1161C12.8505 12.8817 13.1685 12.75 13.5 12.75ZM13.5 16.75C12.7707 16.75 12.0712 16.4603 11.5555 15.9445C11.0397 15.4288 10.75 14.7293 10.75 14C10.75 13.2707 11.0397 12.5712 11.5555 12.0555C12.0712 11.5397 12.7707 11.25 13.5 11.25H14.75V9C14.75 8.80109 14.829 8.61032 14.9697 8.46967C15.1103 8.32902 15.3011 8.25 15.5 8.25C15.6989 8.25 15.8897 8.32902 16.0303 8.46967C16.171 8.61032 16.25 8.80109 16.25 9V15.4C16.25 15.758 16.1078 16.1014 15.8546 16.3546C15.6014 16.6078 15.258 16.75 14.9 16.75H13.5Z" fill="black"/>
</svg>
