<svg width="29" height="29" viewBox="0 0 29 29" fill="none" xmlns="http://www.w3.org/2000/svg">
<path d="M17.2388 8.05599C17.0251 8.27399 16.9054 8.56707 16.9054 8.87232C16.9054 9.17757 17.0251 9.47065 17.2388 9.68865L19.1047 11.5545C19.3227 11.7682 19.6157 11.8879 19.921 11.8879C20.2262 11.8879 20.5193 11.7682 20.7373 11.5545L24.3595 7.93354C24.7327 7.55803 25.3659 7.67698 25.5058 8.18777C25.8582 9.46926 25.8383 10.8246 25.4484 12.0952C25.0586 13.3657 24.315 14.499 23.3045 15.3624C22.2941 16.2258 21.0587 16.7835 19.7429 16.9704C18.427 17.1572 17.0852 16.9654 15.8743 16.4175L6.64985 25.642C6.18592 26.1058 5.55675 26.3663 4.90075 26.3662C4.24476 26.366 3.61568 26.1054 3.15189 25.6414C2.68811 25.1775 2.42763 24.5483 2.42773 23.8923C2.42784 23.2363 2.68854 22.6072 3.15248 22.1435L12.377 12.919C11.829 11.7081 11.6373 10.3663 11.8241 9.05045C12.011 7.73461 12.5687 6.4992 13.4321 5.48878C14.2954 4.47836 15.4287 3.73472 16.6993 3.34488C17.9699 2.95505 19.3252 2.93514 20.6067 3.28748C21.1175 3.42742 21.2364 4.05949 20.8621 4.435L17.2388 8.05599Z" stroke="#0A0A0A" stroke-width="2.33236" stroke-linecap="round" stroke-linejoin="round"/>
</svg>
