<svg width="24" height="24" viewBox="0 0 24 24" fill="none" xmlns="http://www.w3.org/2000/svg">
<path d="M10.6298 11.11C10.5706 11.2962 10.4652 11.4644 10.3236 11.599C10.182 11.7336 10.0087 11.8303 9.8198 11.88C9.2937 12.0304 8.74233 12.0712 8.1998 12C8.0898 12 8.0498 12 8.0498 11.84V9.4C8.0498 9.31 8.0498 9.23 8.1698 9.23C8.64447 9.22333 9.1178 9.24667 9.5898 9.3C9.79129 9.32371 9.98444 9.39426 10.1538 9.50598C10.3231 9.61771 10.464 9.76752 10.565 9.94343C10.6661 10.1193 10.7246 10.3165 10.7359 10.519C10.7471 10.7216 10.7108 10.924 10.6298 11.11Z" fill="black"/>
<path d="M17 2H7C5.67392 2 4.40215 2.52678 3.46447 3.46447C2.52678 4.40215 2 5.67392 2 7V17C2 18.3261 2.52678 19.5979 3.46447 20.5355C4.40215 21.4732 5.67392 22 7 22H17C18.3261 22 19.5979 21.4732 20.5355 20.5355C21.4732 19.5979 22 18.3261 22 17V7C22 5.67392 21.4732 4.40215 20.5355 3.46447C19.5979 2.52678 18.3261 2 17 2ZM11.86 12.57C11.3471 13.1486 10.6306 13.5069 9.86 13.57C9.36 13.63 8.86 13.57 8.36 13.65H8V16.22C8 16.42 8 16.45 7.79 16.45H6.37C6.22 16.45 6.16 16.4 6.16 16.24V7.79C6.16 7.66 6.16 7.59 6.34 7.59H9.1C9.75741 7.56837 10.41 7.70919 11 8C11.4608 8.21822 11.8507 8.56201 12.1248 8.99185C12.399 9.4217 12.5464 9.92017 12.55 10.43C12.5844 10.8147 12.541 11.2025 12.4225 11.5701C12.3039 11.9378 12.1126 12.2778 11.86 12.57ZM17.8 11.28C17.8 11.42 17.72 11.45 17.6 11.45C17.1039 11.4358 16.6102 11.5243 16.15 11.71L16.02 11.77C15.8917 11.8109 15.7817 11.8951 15.7087 12.0082C15.6357 12.1213 15.6044 12.2563 15.62 12.39V16.21C15.62 16.44 15.62 16.45 15.39 16.45H13.94C13.73 16.45 13.71 16.45 13.71 16.22V11.03C13.71 10.65 13.71 10.27 13.66 9.89C13.66 9.76 13.66 9.7 13.83 9.71H15.16C15.1925 9.70424 15.226 9.70556 15.2579 9.71387C15.2899 9.72219 15.3198 9.7373 15.3454 9.75817C15.371 9.77905 15.3918 9.80521 15.4064 9.83486C15.421 9.86451 15.4291 9.89696 15.43 9.93C15.43 10.13 15.5 10.34 15.53 10.51C15.83 10.3 16.12 10.07 16.44 9.88C16.8021 9.67287 17.2128 9.56588 17.63 9.57C17.75 9.57 17.81 9.57 17.81 9.74L17.8 11.28Z" fill="black"/>
</svg>
