<svg width="29" height="29" viewBox="0 0 29 29" fill="none" xmlns="http://www.w3.org/2000/svg">
<path d="M18.7544 15.9503L24.8454 20.0109C24.9332 20.0694 25.0352 20.1029 25.1405 20.1079C25.2459 20.113 25.3506 20.0893 25.4436 20.0396C25.5366 19.9898 25.6143 19.9157 25.6685 19.8252C25.7228 19.7348 25.7514 19.6313 25.7515 19.5258V9.96778C25.7515 9.86519 25.7245 9.7644 25.6731 9.6756C25.6217 9.58679 25.5478 9.51312 25.4588 9.46201C25.3699 9.4109 25.269 9.38418 25.1664 9.38452C25.0638 9.38487 24.9631 9.41229 24.8745 9.46399L18.7544 13.0348" stroke="#0A0A0A" stroke-width="2.33236" stroke-linecap="round" stroke-linejoin="round"/>
<path d="M16.4224 7.78711H4.76058C3.47246 7.78711 2.42822 8.83134 2.42822 10.1195V19.4489C2.42822 20.737 3.47246 21.7813 4.76058 21.7813H16.4224C17.7105 21.7813 18.7548 20.737 18.7548 19.4489V10.1195C18.7548 8.83134 17.7105 7.78711 16.4224 7.78711Z" stroke="#0A0A0A" stroke-width="2.33236" stroke-linecap="round" stroke-linejoin="round"/>
</svg>
